<?xml version="1.0" encoding="utf-8"?>
<!-- Generator: Adobe Illustrator 22.0.1, SVG Export Plug-In . SVG Version: 6.00 Build 0)  -->
<svg version="1.1" id="Слой_1" xmlns="http://www.w3.org/2000/svg" xmlns:xlink="http://www.w3.org/1999/xlink" x="0px" y="0px"
	 viewBox="0 0 1366 768" style="enable-background:new 0 0 1366 768;" xml:space="preserve">
<style type="text/css">
	.st0{fill:#2A2A2B;}
	.st1{fill:#FEAF09;}
	.st2{fill:#2B2B2B;}
	.st3{fill:#F9F9F9;}
	.st4{fill:#FBFBFB;}
	.st5{fill:#2C2C2C;}
	.st6{fill:#383838;}
	.st7{fill:#FEFEFE;}
</style>
<g>
	<path class="st0" d="M512,387c0.3-3.7-0.5-7.2,0.5-10.5c0.4-5.2,1.6-10.3,3.3-15.3c3.3-10.2,10.6-17,19.4-22.6
		c15.3-9.3,30.9-8.6,46.7-1.4c7.2,4.5,13.9,9.7,18.6,16.9c1.1,1.7,3.9,3.3,2.2,5.9c-1.1,1.7-8.3,0.1-9.8-2
		c-4.3-5.8-9.3-10.6-16-13.9c-15.7-7.8-35.2-3.4-46,10.5c-6.9,9.3-10,19.7-8.9,31.2c1.2,11.9,6.1,21.9,16.1,28.9
		c12.9,7.7,26.1,9.2,40,2.7c1-0.5,2.1-0.9,3.1-1.5c2-0.8,3.7-1.9,4.9-3.8c3.6-3.4,6.9-6.5,8.6-10.9c0.8-2.2,6.8-2.3,8.7-0.9
		c1.5,1.1,1.4,2.4,0.6,3.9c-7,12.6-17.2,21.1-31,25.6c-17.8,5.8-32.5-0.5-46.3-11c-4.1-4.5-7.9-9-10.1-14.8"/>
	<path class="st1" d="M628.2,347.3c3.5-3.2,4.8-7.8,7.4-11.7c1.3-2,2.5-2.7,4.8-2.7c16.6,0.1,33.2,0.1,49.8,0c2.6,0,4.2,0.8,5.6,3.1
		c2.1,3.4,3.3,7.3,6.2,10.1c6,10.5,11.8,21.1,18,31.5c1.7,2.8,1.7,5.1,0.1,7.8c-8.1,13.7-16.2,27.4-24.1,41.3c-1.6,2.8-3.5,4-6.7,4
		c-15.8-0.1-31.6-0.1-47.4,0c-3.3,0-5.3-1.2-6.8-3.9c-8.2-14.2-16.4-28.4-24.8-42.6c-1.2-2-1-3.3,0.1-5.4
		C616.2,368.3,623,358.3,628.2,347.3z"/>
	<path class="st2" d="M814.5,397.8c8.2,0,16.3,0.1,24.5,0c2.4,0,3.9,0.3,4.9,3c3.4,9.2,7,18.2,10.6,27.3c0.9,2.2,0,2.9-2.2,3
		c-3.9,0.2-6.9,0-8.3-4.8c-1.7-6-4.5-11.8-6.4-17.7c-0.7-2.2-1.8-2.8-3.9-2.8c-13.2,0-26.3,0-39.5,0c-2.3,0-3.5,0.6-4.3,3.1
		c-1.8,6-4.1,11.9-6.2,17.8c-1.5,4.2-4.7,5.6-9,4.3c-2.2-0.7-1.3-1.9-0.8-3.1c3.5-9.4,7-18.9,10.5-28.3c0.9-2.3,3-1.7,4.7-1.8
		C797.5,397.7,806,397.8,814.5,397.8z"/>
	<path class="st2" d="M808.1,336.2c4.4-5.1,8.6-4.8,11.8,0.9c5.9,16,11.9,31.9,17.8,47.9c0.6,1.6,3.2,3.3,0.3,5
		c-2.6,1.5-7.4-0.3-8.4-3c-3.4-9.2-6.7-18.3-10-27.5c-1.3-3.4-2.6-6.8-3.8-10.2c-0.3-0.9-0.2-2.3-1.4-2.4c-1.4-0.2-1.9,1.1-2.3,2.2
		c-2.7,7.3-5.4,14.6-8.1,21.9c-2.1,5.6-4.1,11.2-6.2,16.7c-0.8,2.1-7.5,3.6-9.1,2.1c-0.9-0.9-0.2-1.7,0.2-2.7
		c6.2-16,12.4-32,18.6-48C807.8,338.2,807.9,337.1,808.1,336.2z"/>
	<path class="st3" d="M555,419c-1.9-3.5-4.4-2.6-7-1c0.8-3.1,1.8-4.5,5.5-2.5c3.3,1.8,7.7,1.8,10.9,0c3.1-1.7,4,0,5.6,1.5
		c-4.5-1-8.3,0.9-12,3C557.2,419,555.8,419.9,555,419z"/>
	<path class="st4" d="M579.3,430.2c1-0.1,1.5,0.5,1.6,1.4c0.1,0.8,0.2,1.8-1,1.9c-1,0.1-1.5-0.6-1.7-1.4
		C578,431.3,578.2,430.5,579.3,430.2z"/>
	<path class="st5" d="M778.9,333.3c0.4,6.9,0.4,6.9-6.5,6.9c-5.7,0-11.3,0.3-17-0.1c-4.9-0.4-5.8,1.6-5.7,6
		c0.2,26.5,0.1,53,0.2,79.4c0,3.3-0.3,5.4-4.5,5.2c-3.3-0.1-4.2-1.3-4.2-4.5c0.1-16.3,0.1-32.6,0.1-49c0-14.7,0-29.3,0-44
		C753.8,332.5,766.3,332.8,778.9,333.3z"/>
	<path class="st6" d="M732.8,333.1c0.8,6.9,0.8,7-6,6.9c-4.9,0-9.9-0.1-14.8-0.1c-0.8-7-0.8-7.1,5.9-7
		C722.9,332.9,727.9,333,732.8,333.1z"/>
	<path class="st7" d="M665.3,423.3c-6.8,0-13.6-0.1-20.5,0c-2.6,0.1-4.2-0.6-5.5-3c-6.8-12-13.7-23.9-20.7-35.7
		c-1.2-2.1-1.4-3.6-0.1-5.8c6.8-11.6,13.5-23.2,20.1-34.9c1.8-3.2,4.1-4.6,8-4.6c12.8,0.2,25.6,0.2,38.4,0c3,0,4.9,0.9,6.4,3.6
		c6.7,11.9,13.5,23.6,20.5,35.3c1.5,2.5,1.4,4.5,0,6.9c-6.8,11.6-13.6,23.2-20.2,34.9c-1.4,2.5-3.1,3.5-6,3.4
		C678.9,423.2,672.1,423.3,665.3,423.3z"/>
	<path class="st7" d="M555,419c1.1,0,2.3-0.2,3,1c-2.6,0-5.2,0-7.8,0c0-0.3,0-0.7,0-1C551.7,419,553.4,419,555,419z"/>
</g>
</svg>
