<?xml version="1.0" encoding="UTF-8" standalone="no"?>
<!-- Created with Inkscape (http://www.inkscape.org/) -->

<svg
   xmlns:dc="http://purl.org/dc/elements/1.1/"
   xmlns:cc="http://creativecommons.org/ns#"
   xmlns:rdf="http://www.w3.org/1999/02/22-rdf-syntax-ns#"
   xmlns:svg="http://www.w3.org/2000/svg"
   xmlns="http://www.w3.org/2000/svg"
   xmlns:sodipodi="http://sodipodi.sourceforge.net/DTD/sodipodi-0.dtd"
   xmlns:inkscape="http://www.inkscape.org/namespaces/inkscape"
   width="18.332827mm"
   height="17.44545mm"
   viewBox="0 -0.1 18.332827 17.44545"
   version="1.1"
   id="svg8"
   inkscape:version="0.92.2 (5c3e80d, 2017-08-06)"
   sodipodi:docname="ico1.svg">
  <defs
     id="defs2" />
  <sodipodi:namedview
     id="base"
     pagecolor="#ffffff"
     bordercolor="#f4b84c"
     borderopacity="1.0"
     inkscape:pageopacity="0.0"
     inkscape:pageshadow="2"
     inkscape:zoom="5.6"
     inkscape:cx="12.768516"
     inkscape:cy="25.421019"
     inkscape:document-units="mm"
     inkscape:current-layer="layer1"
     showgrid="false"
     fit-margin-top="0"
     fit-margin-left="0"
     fit-margin-right="0"
     fit-margin-bottom="0"
     inkscape:window-width="1920"
     inkscape:window-height="1017"
     inkscape:window-x="-8"
     inkscape:window-y="-4"
     inkscape:window-maximized="1" />
  <metadata
     id="metadata5">
    <rdf:RDF>
      <cc:Work
         rdf:about="">
        <dc:format>image/svg+xml</dc:format>
        <dc:type
           rdf:resource="http://purl.org/dc/dcmitype/StillImage" />
        <dc:title></dc:title>
      </cc:Work>
    </rdf:RDF>
  </metadata>
  <g
     inkscape:label="Layer 1"
     inkscape:groupmode="layer"
     id="layer1"
     transform="translate(-58.896309,-117.51171)">
    <path
       style="fill:#f4b84c;stroke-width:0.35277775"
       d="m 64.684326,134.26091 c -0.87312,-0.40503 -2.1666,-1.29974 -2.87439,-1.98825 l -1.28688,-1.25184 -0.23956,1.0907 c -0.27,1.22927 -0.78429,1.69924 -1.29768,1.18584 -0.36152,-0.36152 0.45231,-4.15417 1.01136,-4.71322 0.36603,-0.36603 5.03993,1.00549 5.03993,1.47892 0,0.58891 -0.99739,0.76808 -2.11225,0.37944 -1.38351,-0.4823 -1.35039,-0.007 0.0838,1.20242 1.59466,1.34463 3.13047,1.91949 5.10394,1.91043 3.6166,-0.0166 6.47503,-2.42221 7.2318,-6.08615 0.31457,-1.52295 0.56079,-2.0153 0.96645,-1.93251 0.73873,0.15076 0.53079,2.79642 -0.3565,4.53565 -2.08448,4.08593 -7.30702,6.02692 -11.27,4.18857 z m -5.46455,-7.74769 c -0.43604,-0.70554 0.21277,-3.10254 1.34555,-4.97105 1.62721,-2.68408 4.1227,-4.03046 7.47039,-4.03046 2.05439,0 2.74484,0.16189 4.10796,0.96322 0.90118,0.52977 2.04437,1.44555 2.54041,2.03507 l 0.90191,1.07185 0.2336,-1.24522 c 0.25644,-1.36694 0.73024,-1.86024 1.26913,-1.32136 0.47826,0.47826 -0.3686,4.67633 -0.99157,4.91538 -0.26269,0.1008 -1.38941,-0.0393 -2.50382,-0.31125 -1.45393,-0.35485 -2.06169,-0.67881 -2.15186,-1.14703 -0.11186,-0.58082 0.0389,-0.6262 1.37233,-0.41298 1.49775,0.2395 1.49791,0.23941 0.96458,-0.56657 -0.85157,-1.28691 -3.98299,-2.74759 -5.87115,-2.73864 -3.96377,0.0188 -6.75127,2.68663 -7.51766,7.19496 -0.13387,0.78753 -0.82556,1.12106 -1.1698,0.56408 z"
       id="path21"
       inkscape:connector-curvature="0" />
    <path
       style="fill:#f4b84c;stroke-width:0.71428573;fill-opacity:0"
       d="M 1.5542661,33.210261 C 0.95816453,31.332111 2.9539822,24.221483 5.6108399,18.757643 8.7457283,12.310732 15.181022,5.9165642 20.77918,3.6862389 24.574268,2.1742631 26.212627,1.9769913 35.09055,1.9630323 l 10.025656,-0.015764 4.125867,2.499245 c 2.269227,1.3745847 6.327368,4.5085136 9.018092,6.9642857 2.690724,2.455772 5.040386,4.465041 5.221471,4.465041 0.181086,0 0.533169,-1.275257 0.782407,-2.833904 0.617385,-3.8609134 1.886954,-6.4518105 3.161461,-6.4518105 0.877757,0 0.988415,0.889831 0.644,5.1785715 -0.391403,4.873846 -2.184054,11.593572 -3.272293,12.26614 -0.862051,0.532777 -11.196819,-1.527635 -13.414395,-2.674388 -1.17494,-0.607585 -2.553986,-1.608036 -3.064548,-2.223225 -0.827745,-0.997372 -0.377241,-1.118527 4.159166,-1.118527 3.910194,0 5.087461,-0.233887 5.087461,-1.010723 0,-1.616861 -6.245545,-6.666953 -11.351379,-9.1786237 -4.470209,-2.1989928 -5.094698,-2.3106534 -12.922909,-2.3106534 -7.225802,0 -8.616438,0.2027814 -11.439998,1.6681708 C 14.77171,10.860721 9.6893283,17.4771 6.3972886,27.304412 4.1627002,33.975047 2.4571255,36.054919 1.5542661,33.210261 Z"
       id="path4521"
       inkscape:connector-curvature="0"
       transform="matrix(0.26458333,0,0,0.26458333,58.896309,117.41171)" />
  </g>
</svg>
