<?xml version="1.0" encoding="utf-8"?>
<!-- Generator: Adobe Illustrator 22.0.1, SVG Export Plug-In . SVG Version: 6.00 Build 0)  -->
<svg version="1.1" id="Слой_1" xmlns="http://www.w3.org/2000/svg" xmlns:xlink="http://www.w3.org/1999/xlink" x="0px" y="0px"
	 viewBox="0 0 290.8 64.2" style="enable-background:new 0 0 290.8 64.2;" xml:space="preserve">
<style type="text/css">
	.st0{fill-rule:evenodd;clip-rule:evenodd;fill:url(#SVGID_1_);}
	.st1{fill-rule:evenodd;clip-rule:evenodd;fill:url(#SVGID_2_);}
	.st2{fill-rule:evenodd;clip-rule:evenodd;fill:url(#SVGID_3_);}
	.st3{fill-rule:evenodd;clip-rule:evenodd;fill:#222220;}
	.st4{fill:#284D98;}
	.st5{fill-rule:evenodd;clip-rule:evenodd;fill:none;stroke:#284D98;stroke-width:0.2653;stroke-miterlimit:22.9256;}
</style>
<g>
	<g>
		<g>
			<linearGradient id="SVGID_1_" gradientUnits="userSpaceOnUse" x1="88.4996" y1="18.5686" x2="56.5258" y2="67.8039">
				<stop  offset="0" style="stop-color:#1E2759"/>
				<stop  offset="0.44" style="stop-color:#264A91"/>
				<stop  offset="1" style="stop-color:#99CDF2"/>
			</linearGradient>
			<path class="st0" d="M46.4,50.9l0.3-0.5c8.6,10.6,23,7.8,28.6-2.3c6-10.9,4.4-26.1,0.8-34c5.7-2.1,12.5,0,16,6
				c5,8.6,3.1,25.6-7.7,35.9C70.5,69.2,50,63.9,46.4,50.9z"/>
			<linearGradient id="SVGID_2_" gradientUnits="userSpaceOnUse" x1="18.1379" y1="65.5068" x2="81.1013" y2="0.3062">
				<stop  offset="0" style="stop-color:#1E2759"/>
				<stop  offset="0.38" style="stop-color:#264A91"/>
				<stop  offset="1" style="stop-color:#99CDF2"/>
			</linearGradient>
			<path class="st1" d="M9.2,54.1c4.2,5.2,10.7,9.4,17.3,9.1c9.8-0.4,15.9-8.3,21.3-17.4c5.9-9.9,11.4-21.9,20.2-30.1
				c6.8-6.3,15-7.3,21.2-3.3C83.8-0.6,68-5.2,55.6,8.3c-7.7,8.4-14,21.4-19.4,29.9c-3.8,6-7.4,10-10.7,12.6
				C20.2,55,14.4,55.7,9.2,54.1z"/>
			<linearGradient id="SVGID_3_" gradientUnits="userSpaceOnUse" x1="25.7582" y1="23.7937" x2="3.492" y2="46.851">
				<stop  offset="0" style="stop-color:#1E2759"/>
				<stop  offset="0.37" style="stop-color:#264A91"/>
				<stop  offset="1" style="stop-color:#99CDF2"/>
			</linearGradient>
			<path class="st2" d="M13.9,51.7c-11.1-7.9-4.8-24,8-23.6c-0.6,1.7-1.6,3.8-2.5,5.3l0.1,0.2c3.4-2.2,11.2-4.9,18.7-0.6
				C35.7,22.1,26.8,15.1,23,13.4c0.5,1.2,0.7,3.3,0.5,4.3C9.7,14.6-3.4,26.6,1.9,41.5C3.9,47,8.4,52.2,13.9,51.7z"/>
		</g>
		<g>
			<path class="st3" d="M101.5,4.5h0.9V11l4-6.5h1v8.2h-0.9V6.2l-4,6.5h-1V4.5L101.5,4.5z M109.1,12.7V4.5h1v3.4h3.9V4.5h1v8.2h-1
				V8.8h-3.9v3.9H109.1L109.1,12.7z M119.4,5.5v-1h0.9v1c1,0.1,1.7,0.4,2.3,0.9c0.6,0.6,0.8,1.3,0.8,2.1c0,0.8-0.3,1.5-0.8,2.1
				c-0.5,0.6-1.3,0.9-2.3,1v1.1h-0.9v-1.1c-0.9,0-1.6-0.3-2.2-0.9c-0.6-0.6-0.9-1.3-0.9-2.2s0.3-1.6,0.9-2.2
				C117.8,5.8,118.6,5.5,119.4,5.5L119.4,5.5z M120.4,6.4v4.3c0.6,0,1.2-0.2,1.5-0.6c0.4-0.4,0.6-0.9,0.6-1.5c0-0.6-0.2-1.1-0.5-1.5
				C121.6,6.6,121,6.4,120.4,6.4L120.4,6.4z M119.4,6.4c-0.6,0-1.1,0.2-1.5,0.6c-0.4,0.4-0.6,0.9-0.6,1.5c0,0.7,0.2,1.2,0.6,1.5
				c0.4,0.4,0.9,0.6,1.5,0.6V6.4L119.4,6.4z M124.4,8.7c0-1.4,0.3-2.4,1-3.2c0.7-0.8,1.5-1.1,2.6-1.1c0.7,0,1.3,0.2,1.9,0.5
				c0.6,0.4,1,0.9,1.3,1.5c0.3,0.6,0.4,1.4,0.4,2.2c0,0.8-0.2,1.6-0.5,2.2c-0.3,0.7-0.7,1.1-1.3,1.5c-0.6,0.3-1.2,0.5-1.8,0.5
				c-0.7,0-1.3-0.2-1.9-0.6c-0.6-0.4-1-0.9-1.3-1.5C124.6,10.1,124.4,9.4,124.4,8.7L124.4,8.7z M125.5,8.7c0,1,0.2,1.8,0.7,2.3
				c0.5,0.6,1.1,0.9,1.8,0.9c0.8,0,1.4-0.3,1.9-0.9c0.5-0.6,0.7-1.4,0.7-2.4c0-0.7-0.1-1.2-0.3-1.7c-0.2-0.5-0.5-0.9-0.9-1.2
				c-0.4-0.3-0.9-0.4-1.3-0.4c-0.7,0-1.3,0.3-1.8,0.8C125.7,6.6,125.5,7.5,125.5,8.7L125.5,8.7z M133,12.7V4.5h2.9
				c0.5,0,0.9,0,1.1,0.1c0.4,0.1,0.7,0.2,0.9,0.4c0.2,0.2,0.5,0.4,0.6,0.8c0.2,0.3,0.2,0.7,0.2,1.1c0,0.7-0.2,1.3-0.6,1.8
				c-0.4,0.5-1.1,0.7-2.2,0.7H134v3.3H133L133,12.7z M134,8.4h2c0.6,0,1.1-0.1,1.4-0.4c0.3-0.3,0.4-0.6,0.4-1.1
				c0-0.3-0.1-0.6-0.2-0.9c-0.2-0.2-0.4-0.4-0.6-0.5c-0.2,0-0.5-0.1-0.9-0.1H134V8.4L134,8.4z M139.8,12.7V4.5h1.5l1.8,5.8
				c0.2,0.5,0.3,0.9,0.4,1.2c0.1-0.3,0.2-0.7,0.4-1.3l1.8-5.7h1.3v8.2h-1V5.8l-2.2,6.8H143l-2.2-7v7H139.8L139.8,12.7z M147.8,12.7
				l2.9-8.2h1.1l3.1,8.2h-1.1l-0.9-2.5h-3.2l-0.8,2.5H147.8L147.8,12.7z M150,9.3h2.6L151.8,7c-0.2-0.7-0.4-1.3-0.5-1.7
				c-0.1,0.5-0.2,1-0.4,1.6L150,9.3L150,9.3z M155.7,4.5h1v7.2h3.9V4.5h1v7.2h0.7v3.2h-0.9v-2.3h-5.7V4.5L155.7,4.5z M163.5,4.5h0.9
				V11l4-6.5h1v8.2h-0.9V6.2l-4,6.5h-1V4.5L163.5,4.5z M177.1,12.7V4.5h-3.4c-0.7,0-1.2,0.1-1.5,0.2c-0.4,0.1-0.6,0.4-0.8,0.8
				c-0.2,0.4-0.3,0.8-0.3,1.2c0,0.6,0.2,1.1,0.5,1.5c0.3,0.4,0.9,0.7,1.6,0.8c-0.3,0.1-0.5,0.3-0.6,0.4c-0.3,0.3-0.6,0.7-0.8,1.1
				l-1.3,2.2h1.3l1-1.7c0.3-0.5,0.5-0.9,0.7-1.1c0.2-0.3,0.4-0.4,0.5-0.5c0.2-0.1,0.3-0.2,0.5-0.2c0.1,0,0.3,0,0.6,0h1.2v3.6H177.1
				L177.1,12.7z M176.1,8.1h-2.2c-0.5,0-0.8,0-1.1-0.2c-0.3-0.1-0.5-0.3-0.6-0.5c-0.1-0.2-0.2-0.5-0.2-0.7c0-0.4,0.1-0.7,0.4-1
				c0.3-0.3,0.7-0.4,1.2-0.4h2.4V8.1L176.1,8.1z M184.6,4.5h0.9V11l4-6.5h1v8.2h-0.9V6.2l-4,6.5h-1V4.5L184.6,4.5z M192.9,4.5h4.6
				v7.2h0.7v2.9h-0.9v-1.9h-5v1.9h-0.9v-2.9h0.6c0.6-1,0.9-3,0.9-6V4.5L192.9,4.5z M196.5,5.4h-2.6v0.4c0,0.7-0.1,1.6-0.2,2.8
				c-0.1,1.2-0.3,2.2-0.7,3h3.5V5.4L196.5,5.4z M199.4,12.7V4.5h5.5v1h-4.5v2.5h4.2v1h-4.2v2.8h4.6v1H199.4L199.4,12.7z M206.4,4.5
				h0.9V11l4-6.5h1v8.2h-0.9V6.2l-4,6.5h-1V4.5L206.4,4.5z M221.8,12.7V5.4h-2.5v-1h6v1h-2.5v7.2H221.8L221.8,12.7z M226.3,12.7V4.5
				h5.5v1h-4.5v2.5h4.2v1h-4.2v2.8h4.6v1H226.3L226.3,12.7z M232.6,12.7l2.9-4.3l-2.6-3.9h1.2l1.4,2.1c0.3,0.4,0.5,0.8,0.6,1
				c0.2-0.3,0.4-0.6,0.6-0.9l1.5-2.2h1.1l-2.7,3.9l2.9,4.3h-1.2l-1.9-2.9c-0.1-0.2-0.2-0.4-0.3-0.5c-0.2,0.3-0.3,0.5-0.4,0.6
				l-1.9,2.9H232.6L232.6,12.7z M240.4,12.7V4.5h1v3.4h3.9V4.5h1v8.2h-1V8.8h-3.9v3.9H240.4L240.4,12.7z M247.7,8.7
				c0-1.4,0.3-2.4,1-3.2c0.7-0.8,1.5-1.1,2.6-1.1c0.7,0,1.3,0.2,1.9,0.5c0.6,0.4,1,0.9,1.3,1.5c0.3,0.6,0.4,1.4,0.4,2.2
				c0,0.8-0.2,1.6-0.5,2.2c-0.3,0.7-0.7,1.1-1.3,1.5c-0.6,0.3-1.2,0.5-1.8,0.5c-0.7,0-1.3-0.2-1.9-0.6c-0.6-0.4-1-0.9-1.3-1.5
				C247.8,10.1,247.7,9.4,247.7,8.7L247.7,8.7z M248.7,8.7c0,1,0.2,1.8,0.7,2.3c0.5,0.6,1.1,0.9,1.8,0.9c0.8,0,1.4-0.3,1.9-0.9
				c0.5-0.6,0.7-1.4,0.7-2.4c0-0.7-0.1-1.2-0.3-1.7c-0.2-0.5-0.5-0.9-0.9-1.2c-0.4-0.3-0.9-0.4-1.3-0.4c-0.7,0-1.3,0.3-1.8,0.8
				C249,6.6,248.7,7.5,248.7,8.7L248.7,8.7z M256.7,4.5h4.7v8.2h-1V5.4h-2.7v4.2c0,0.9,0,1.5-0.1,1.9c-0.1,0.4-0.2,0.7-0.5,0.9
				c-0.2,0.2-0.5,0.3-0.9,0.3c-0.2,0-0.5,0-0.8-0.1l0.2-1c0.2,0.1,0.3,0.1,0.4,0.1c0.2,0,0.4-0.1,0.5-0.3c0.1-0.2,0.2-0.6,0.2-1.3
				V4.5L256.7,4.5z M262.7,8.7c0-1.4,0.3-2.4,1-3.2c0.7-0.8,1.5-1.1,2.6-1.1c0.7,0,1.3,0.2,1.9,0.5c0.6,0.4,1,0.9,1.3,1.5
				c0.3,0.6,0.4,1.4,0.4,2.2c0,0.8-0.2,1.6-0.5,2.2c-0.3,0.7-0.7,1.1-1.3,1.5c-0.6,0.3-1.2,0.5-1.8,0.5c-0.7,0-1.3-0.2-1.9-0.6
				c-0.6-0.4-1-0.9-1.3-1.5C262.9,10.1,262.7,9.4,262.7,8.7L262.7,8.7z M263.8,8.7c0,1,0.2,1.8,0.7,2.3c0.5,0.6,1.1,0.9,1.8,0.9
				c0.8,0,1.4-0.3,1.9-0.9c0.5-0.6,0.7-1.4,0.7-2.4c0-0.7-0.1-1.2-0.3-1.7c-0.2-0.5-0.5-0.9-0.9-1.2c-0.4-0.3-0.8-0.4-1.3-0.4
				c-0.7,0-1.3,0.3-1.8,0.8C264,6.6,263.8,7.5,263.8,8.7L263.8,8.7z M271.3,4.5h4.9v1h-3.9v7.2h-1V4.5L271.3,4.5z M277,4.5h0.9V11
				l4-6.5h1v8.2H282V6.2l-4,6.5h-1V4.5L277,4.5z M284.6,4.5h0.9V11l4-6.5h1v8.2h-0.9V6.2l-4,6.5h-1V4.5z"/>
			<path class="st3" d="M217.1,6.9c0.7,0,1.3,0.6,1.3,1.3c0,0.7-0.6,1.3-1.3,1.3c-0.7,0-1.3-0.6-1.3-1.3
				C215.8,7.5,216.4,6.9,217.1,6.9z"/>
			<path class="st3" d="M181.3,6.9c0.7,0,1.3,0.6,1.3,1.3c0,0.7-0.6,1.3-1.3,1.3c-0.7,0-1.3-0.6-1.3-1.3
				C180,7.5,180.6,6.9,181.3,6.9z"/>
		</g>
		<path class="st3" d="M109.9,44.8h5.7v8.5c0,1.1-0.1,2-0.3,2.8c-0.2,0.8-0.7,1.5-1.4,2.1c-0.8,0.6-1.9,0.9-3.4,0.9h-3.9
			c-1,0-1.9-0.1-2.6-0.3c-0.7-0.2-1.3-0.7-1.8-1.6c-0.5-0.9-0.7-2.2-0.7-4V25.1c0-1.2,0.1-2.2,0.2-2.9c0.2-0.8,0.6-1.4,1.4-2
			c0.8-0.6,1.9-0.8,3.5-0.8h3.9c1.5,0,2.6,0.3,3.4,0.8c0.7,0.6,1.2,1.2,1.4,2.1c0.2,0.8,0.3,1.8,0.3,2.8v7.5h-5.7v-9
			c0-0.4-0.2-0.7-0.5-0.9c-0.3-0.2-0.6-0.4-0.9-0.4c-0.3,0-0.6,0.1-0.9,0.4c-0.3,0.3-0.4,0.6-0.4,0.9v30.7c0,0.3,0.1,0.6,0.4,0.8
			c0.2,0.3,0.5,0.4,1,0.4c0.4,0,0.7-0.1,1-0.3c0.3-0.2,0.4-0.5,0.4-0.9V44.8L109.9,44.8z M128.3,53.3V25.1c0-4.2,1.7-6.3,5.1-6.3
			h3.9c3.4,0,5.1,2.1,5.1,6.3v28.2c0,1.2-0.1,2.1-0.3,2.9c-0.2,0.8-0.6,1.5-1.4,2.1c-0.8,0.6-1.9,0.9-3.4,0.9h-3.9
			c-1,0-1.9-0.1-2.6-0.4c-0.7-0.2-1.3-0.8-1.8-1.7C128.5,56.3,128.3,55,128.3,53.3L128.3,53.3z M134,23.7v30.5
			c0,0.3,0.1,0.6,0.4,0.9c0.2,0.3,0.6,0.4,1,0.4c0.9,0,1.3-0.5,1.3-1.4V23.7c0-0.4-0.1-0.7-0.4-1c-0.3-0.2-0.6-0.4-0.9-0.4
			c-0.3,0-0.7,0.1-0.9,0.4C134.1,23.1,134,23.4,134,23.7L134,23.7z M163.6,58.5v-4.1h-2.6c-0.9,0-1.7-0.1-2.4-0.3
			c-0.7-0.2-1.3-0.8-1.8-1.6c-0.5-0.8-0.8-2.1-0.8-3.7V26.9c0-2.3,0.5-3.8,1.4-4.5c0.9-0.7,2.1-1.1,3.5-1.1h2.6v-2.5h5.7v2.5h2.8
			c3.2,0,4.8,1.9,4.8,5.6v21.9c0,3.8-1.6,5.6-4.8,5.6h-2.8v4.1H163.6L163.6,58.5z M163.6,50.9V24.8c-1.3,0-1.9,0.7-1.9,2.2v21.8
			C161.6,50.2,162.3,50.9,163.6,50.9L163.6,50.9z M169.2,24.8v26.1c1.3,0,1.9-0.7,1.9-2.1V27c0-0.6-0.2-1.2-0.5-1.6
			C170.4,25,169.9,24.8,169.2,24.8L169.2,24.8z M191.1,58.5V23h-4.3v-3.6h14.3V23h-4.3v35.5H191.1L191.1,58.5z M211.5,58.5V19.4h5.7
			v16.8l2.9-16.8h5.6l-3.5,18.5l4.1,20.6h-5.5l-3.6-18.6v18.6H211.5L211.5,58.5z M237.5,53.3V25.1c0-4.2,1.7-6.3,5.1-6.3h3.9
			c3.4,0,5.1,2.1,5.1,6.3v28.2c0,1.2-0.1,2.1-0.3,2.9c-0.2,0.8-0.6,1.5-1.4,2.1c-0.7,0.6-1.9,0.9-3.4,0.9h-3.9c-1,0-1.9-0.1-2.6-0.4
			c-0.7-0.2-1.3-0.8-1.8-1.7C237.8,56.3,237.5,55,237.5,53.3L237.5,53.3z M243.2,23.7v30.5c0,0.3,0.1,0.6,0.3,0.9
			c0.2,0.3,0.6,0.4,1,0.4c0.9,0,1.3-0.5,1.3-1.4V23.7c0-0.4-0.1-0.7-0.4-1c-0.3-0.2-0.6-0.4-0.9-0.4c-0.3,0-0.6,0.1-0.9,0.4
			C243.4,23.1,243.2,23.4,243.2,23.7L243.2,23.7z M265.2,58.5V19.4h8.4l4.1,26.3l4.7-26.3h7.9v39.1h-5.7V34.2L281,58.5h-6.1l-4-24.3
			v24.3H265.2z"/>
		<g>
			<path class="st4" d="M88.1,62.3v-3.8h1.7c0.4,0,0.7,0,0.9,0.1c0.2,0.1,0.3,0.2,0.5,0.4c0.1,0.2,0.2,0.4,0.2,0.6
				c0,0.3-0.1,0.5-0.3,0.7c-0.2,0.2-0.4,0.3-0.8,0.4c0.2,0.1,0.3,0.2,0.4,0.3c0.1,0.1,0.3,0.3,0.5,0.6l0.5,0.8h-1l-0.6-0.8
				c-0.2-0.3-0.3-0.5-0.4-0.6c-0.1-0.1-0.2-0.1-0.2-0.2c-0.1,0-0.2,0-0.4,0h-0.2v1.6H88.1L88.1,62.3z M88.9,60.1h0.6
				c0.4,0,0.6,0,0.7,0c0.1,0,0.2-0.1,0.2-0.2c0.1-0.1,0.1-0.2,0.1-0.3c0-0.1,0-0.2-0.1-0.3c-0.1-0.1-0.2-0.1-0.3-0.1
				c-0.1,0-0.3,0-0.6,0h-0.6V60.1z"/>
			<path class="st5" d="M89.5,63.7c1.8,0,3.2-1.4,3.2-3.1c0-1.7-1.4-3.1-3.2-3.1c-1.8,0-3.2,1.4-3.2,3.1
				C86.3,62.2,87.8,63.7,89.5,63.7z"/>
		</g>
	</g>
</g>
</svg>
