<?xml version="1.0" encoding="utf-8"?>
<!-- Generator: Adobe Illustrator 22.0.1, SVG Export Plug-In . SVG Version: 6.00 Build 0)  -->
<svg version="1.1" id="Слой_1" xmlns="http://www.w3.org/2000/svg" xmlns:xlink="http://www.w3.org/1999/xlink" x="0px" y="0px"
	 viewBox="0 0 204 35.1" style="enable-background:new 0 0 204 35.1;" xml:space="preserve">
<style type="text/css">
	.st0{fill:#FFFFFF;}
</style>
<g>
	<path class="st0" d="M48.7,17.2V6h2.7l2.9,4.7L57.2,6h2.7v11.2h-2.4V9.9l-3.2,4.8h-0.1l-3.1-4.7v7.3H48.7z"/>
	<path class="st0" d="M68.5,17.2V6H77v2.2h-6v2.3h5.3v2.2H71V15H77v2.2H68.5z"/>
	<path class="st0" d="M87.7,8.2v9h-2.5V6H93v2.2H87.7z"/>
	<path class="st0" d="M99.7,17.2l4.8-11.3h2.3l4.8,11.3H109l-1-2.5h-4.7l-1,2.5H99.7z M104.2,12.5h3l-1.5-3.6L104.2,12.5z"/>
	<path class="st0" d="M119.3,17.2V6h9.3v11.2h-2.5v-9h-4.4v9H119.3z"/>
	<path class="st0" d="M147,15.7c-1.1,1.1-2.6,1.7-4.3,1.7c-1.7,0-3.1-0.6-4.2-1.7c-1.1-1.1-1.7-2.5-1.7-4.1c0-1.6,0.6-3,1.7-4.1
		c1.1-1.1,2.6-1.7,4.3-1.7c1.7,0,3.1,0.6,4.2,1.7c1.1,1.1,1.7,2.5,1.7,4.1C148.7,13.2,148.1,14.5,147,15.7z M140.3,14.1
		c0.6,0.7,1.5,1,2.4,1c1,0,1.8-0.3,2.4-1c0.6-0.7,0.9-1.5,0.9-2.5c0-1-0.3-1.8-1-2.5c-0.6-0.7-1.5-1-2.4-1s-1.8,0.3-2.4,1
		c-0.6,0.7-0.9,1.5-0.9,2.5C139.4,12.5,139.7,13.4,140.3,14.1z"/>
	<path class="st0" d="M158.3,6h8v11.2h-2.5v-9h-3.2V9c0,2.2-0.1,3.9-0.4,5.1c-0.3,1.2-0.6,2-1.1,2.5c-0.5,0.5-1.2,0.7-2.1,0.7
		c-0.5,0-0.9,0-1.3-0.1l0.2-2c0.1,0,0.3,0,0.4,0c0.4,0,0.7-0.1,0.9-0.2s0.4-0.5,0.6-0.9c0.2-0.5,0.3-1.2,0.4-2.1
		c0.1-0.9,0.1-2.1,0.1-3.6V6z"/>
	<path class="st0" d="M184.6,6v11.2h-2.4V9.8l-4.9,7.3H175V6h2.4v7.3l4.9-7.3H184.6z"/>
	<path class="st0" d="M198.5,17.4c-1.6,0-3-0.6-4.1-1.7c-1.1-1.1-1.6-2.5-1.6-4.1c0-1.6,0.5-3,1.6-4.1s2.5-1.7,4.2-1.7
		c1,0,1.8,0.2,2.4,0.5s1.3,0.8,1.9,1.4l-1.5,1.7c-0.5-0.4-0.9-0.8-1.4-1c-0.4-0.2-0.9-0.3-1.5-0.3c-0.9,0-1.7,0.3-2.3,1
		c-0.6,0.7-0.9,1.5-0.9,2.5c0,1,0.3,1.8,0.9,2.5s1.4,1,2.3,1c0.6,0,1.1-0.1,1.6-0.3s0.9-0.5,1.4-1l1.6,1.7c-0.6,0.7-1.3,1.1-2,1.4
		C200.4,17.2,199.5,17.4,198.5,17.4z"/>
</g>
<g>
	<path class="st0" d="M48.8,33.8l2.7-3.2L49,27.8H50l2.4,2.8v-2.8h0.7v2.8l2.4-2.8h0.9L54,30.7l2.7,3.2h-0.9l-2.3-2.7l-0.4,0.4v2.3
		h-0.7v-2.3L52,31.1l-2.3,2.7H48.8z"/>
	<path class="st0" d="M63.8,33.8v-6h0.7v4.7l3.5-4.7h0.8v6H68V29l-3.5,4.8H63.8z"/>
	<path class="st0" d="M76.4,33.8v-6H79c0.3,0,0.5,0,0.7,0.1c0.2,0.1,0.4,0.2,0.5,0.3c0.1,0.1,0.3,0.3,0.3,0.5
		c0.1,0.2,0.1,0.4,0.1,0.6c0,0.2,0,0.4-0.1,0.5c-0.1,0.2-0.1,0.3-0.2,0.4c-0.1,0.1-0.2,0.2-0.3,0.3c-0.1,0.1-0.3,0.1-0.4,0.2
		c0.2,0,0.3,0.1,0.5,0.2s0.3,0.2,0.4,0.3s0.2,0.3,0.3,0.5s0.1,0.3,0.1,0.5c0,0.2,0,0.5-0.1,0.7c-0.1,0.2-0.2,0.4-0.3,0.5
		c-0.1,0.1-0.3,0.3-0.5,0.3s-0.5,0.1-0.7,0.1H76.4z M78.9,30.4c0.3,0,0.6-0.1,0.8-0.3c0.2-0.2,0.3-0.4,0.3-0.7
		c0-0.3-0.1-0.5-0.3-0.7c-0.2-0.2-0.4-0.3-0.8-0.3h-1.8v1.9H78.9z M78.9,33.2c0.4,0,0.6-0.1,0.8-0.3s0.3-0.4,0.3-0.8
		c0-0.1,0-0.3-0.1-0.4c0-0.1-0.1-0.2-0.2-0.3c-0.1-0.1-0.2-0.2-0.3-0.2s-0.3-0.1-0.5-0.1h-1.8v2.1H78.9z"/>
	<path class="st0" d="M88.2,33.8v-6H89v4.7l3.5-4.7h0.8v6h-0.7V29L89,33.8H88.2z"/>
	<path class="st0" d="M113,33.8l-2.3-2.7l-0.6,0.7v2h-0.7v-6h0.7v3.1l2.7-3.1h0.9l-2.5,2.9l2.7,3.2H113z"/>
	<path class="st0" d="M125.3,33.8l-0.5-1.3h-3l-0.5,1.3h-0.9l2.4-6h0.9l2.4,6H125.3z M123.3,28.6l-1.3,3.2h2.5L123.3,28.6z"/>
	<path class="st0" d="M136.8,33.8l-2.3-2.7l-0.6,0.7v2h-0.7v-6h0.7v3.1l2.7-3.1h0.9l-2.5,2.9l2.7,3.2H136.8z"/>
	<path class="st0" d="M152.9,33.2c0.2,0,0.3,0,0.5-0.1s0.3-0.2,0.4-0.3c0.1-0.2,0.2-0.4,0.3-0.7c0.1-0.3,0.2-0.7,0.2-1.2l0.4-3h3.7
		v5.3h0.5v1.8h-0.7v-1.1h-4.5v1.1h-0.7V33.2z M155,30.9c-0.1,0.6-0.2,1.1-0.4,1.5c-0.2,0.4-0.3,0.6-0.6,0.8h3.5v-4.7h-2.3L155,30.9z
		"/>
	<path class="st0" d="M168.8,33.9c-0.4,0-0.8-0.1-1.2-0.2c-0.4-0.2-0.7-0.4-0.9-0.7c-0.3-0.3-0.5-0.6-0.6-1
		c-0.1-0.4-0.2-0.8-0.2-1.2s0.1-0.9,0.2-1.2c0.1-0.4,0.3-0.7,0.6-1c0.3-0.3,0.6-0.5,0.9-0.7c0.4-0.2,0.8-0.2,1.2-0.2
		c0.4,0,0.8,0.1,1.2,0.2c0.4,0.2,0.7,0.4,0.9,0.7c0.3,0.3,0.5,0.6,0.6,1c0.1,0.4,0.2,0.8,0.2,1.2s-0.1,0.9-0.2,1.2
		c-0.1,0.4-0.3,0.7-0.6,1c-0.3,0.3-0.6,0.5-0.9,0.7C169.6,33.9,169.2,33.9,168.8,33.9z M168.8,33.3c0.3,0,0.6-0.1,0.9-0.2
		c0.3-0.1,0.5-0.3,0.7-0.5c0.2-0.2,0.3-0.5,0.4-0.8c0.1-0.3,0.2-0.6,0.2-1s-0.1-0.7-0.2-1c-0.1-0.3-0.3-0.6-0.4-0.8
		s-0.4-0.4-0.7-0.5c-0.3-0.1-0.6-0.2-0.9-0.2c-0.3,0-0.6,0.1-0.9,0.2c-0.3,0.1-0.5,0.3-0.7,0.5c-0.2,0.2-0.3,0.5-0.4,0.8
		c-0.1,0.3-0.2,0.6-0.2,1s0.1,0.7,0.2,1c0.1,0.3,0.2,0.6,0.4,0.8c0.2,0.2,0.4,0.4,0.7,0.5S168.4,33.3,168.8,33.3z"/>
	<path class="st0" d="M184.3,33.8v-4.9l-2,4.9h-0.3l-2-4.9v4.9h-0.7v-6h1.1l1.9,4.5l1.9-4.5h1.1v6H184.3z"/>
	<path class="st0" d="M196.9,33.8l-0.5-1.3h-3l-0.5,1.3H192l2.4-6h0.9l2.4,6H196.9z M194.9,28.6l-1.3,3.2h2.5L194.9,28.6z"/>
</g>
<rect class="st0" width="5" height="3.8"/>
<rect x="5.8" y="6" class="st0" width="5" height="3.8"/>
<rect x="12" class="st0" width="5" height="3.8"/>
<rect x="6" class="st0" width="5" height="3.8"/>
<rect x="12" y="6" class="st0" width="5" height="3.8"/>
<rect y="6" class="st0" width="5" height="3.8"/>
<rect x="5.8" y="12" class="st0" width="5" height="3.8"/>
<rect y="12" class="st0" width="5" height="3.8"/>
<rect x="5.8" y="12" class="st0" width="5" height="3.8"/>
<rect y="12" class="st0" width="5" height="3.8"/>
<rect x="5.8" y="12" class="st0" width="5" height="3.8"/>
<rect y="12" class="st0" width="5" height="3.8"/>
<rect x="5.9" y="18" class="st0" width="5" height="3.8"/>
<rect x="0.1" y="18" class="st0" width="5" height="3.8"/>
<rect x="5.8" y="24" class="st0" width="5" height="3.8"/>
<rect x="0" y="24" class="st0" width="5" height="3.8"/>
<rect x="5.9" y="30" class="st0" width="5" height="3.8"/>
<rect x="0.1" y="30" class="st0" width="5" height="3.8"/>
<rect x="14" y="12" class="st0" width="5" height="3.8"/>
<rect x="19.9" y="12" class="st0" width="5" height="3.8"/>
<rect x="25.9" y="12" class="st0" width="5" height="3.8"/>
<rect x="14" y="18" class="st0" width="5" height="3.8"/>
<rect x="19.9" y="18" class="st0" width="5" height="3.8"/>
<rect x="25.9" y="18" class="st0" width="5" height="3.8"/>
<rect x="14" y="24" class="st0" width="5" height="3.8"/>
<rect x="19.9" y="24" class="st0" width="5" height="3.8"/>
<rect x="25.9" y="24" class="st0" width="5" height="3.8"/>
<rect x="13.9" y="30" class="st0" width="5" height="3.8"/>
<rect x="19.8" y="30" class="st0" width="5" height="3.8"/>
<rect x="25.8" y="30" class="st0" width="5" height="3.8"/>
</svg>
