<svg id="" data-name="" xmlns="http://www.w3.org/2000/svg" viewBox="0 0 138.91 29.82"><defs></defs><title>logo</title><path class="cls-1" d="M22.1,24.49l.13-.21a7.68,7.68,0,0,0,13.06-1.09c2.76-5.12,2-12.26.35-15.95a5.94,5.94,0,0,1,7.3,2.82c2.26,4,1.4,12-3.51,16.83C33.12,33.07,23.75,30.6,22.1,24.49Z" transform="translate(-1.22 -0.65)"/><path class="cls-1" d="M5.12,26C7.06,28.45,10,30.41,13,30.27c4.49-.19,7.27-3.88,9.74-8.16C25.46,17.45,28,11.81,32,8,35.1,5,38.85,4.57,41.69,6.45,39.2.32,32-1.88,26.31,4.48c-3.52,3.93-6.39,10-8.89,14.05a23.61,23.61,0,0,1-4.87,5.91A7.8,7.8,0,0,1,5.12,26Z" transform="translate(-1.22 -0.65)"/><path class="cls-1" d="M7.23,24.84a6.1,6.1,0,0,1,3.66-11.1,13,13,0,0,1-1.16,2.47l.06.11A8.28,8.28,0,0,1,18.33,16a14.21,14.21,0,0,0-6.92-9.13,4.9,4.9,0,0,1,.23,2A8.35,8.35,0,0,0,1.78,20.08C2.67,22.64,4.73,25.08,7.23,24.84Z" transform="translate(-1.22 -0.65)"/><path class="cls-1" d="M54.3,23.07H57V27.2a6.05,6.05,0,0,1-.14,1.36,1.9,1.9,0,0,1-.68,1,2.5,2.5,0,0,1-1.6.44H52.75a3.92,3.92,0,0,1-1.21-.15,1.44,1.44,0,0,1-.84-.77,4.14,4.14,0,0,1-.35-1.93V13.48a7.75,7.75,0,0,1,.11-1.43,1.67,1.67,0,0,1,.65-1,2.73,2.73,0,0,1,1.64-.41h1.83a2.59,2.59,0,0,1,1.59.4,1.73,1.73,0,0,1,.67,1A5.13,5.13,0,0,1,57,13.46v3.66H54.3V12.76a.54.54,0,0,0-.22-.44.76.76,0,0,0-.43-.17.59.59,0,0,0-.43.19.62.62,0,0,0-.19.42V27.67a.62.62,0,0,0,.17.41.59.59,0,0,0,.45.19.68.68,0,0,0,.45-.17.54.54,0,0,0,.2-.43v-4.6ZM63,27.15V13.48c0-2,.8-3.07,2.39-3.07h1.83c1.6,0,2.4,1,2.4,3.07V27.15a7,7,0,0,1-.12,1.42,1.81,1.81,0,0,1-.66,1,2.51,2.51,0,0,1-1.62.44H65.38a3.65,3.65,0,0,1-1.23-.17,1.54,1.54,0,0,1-.83-.81,4.26,4.26,0,0,1-.33-1.9Zm2.69-14.34V27.6a.73.73,0,0,0,.17.46.55.55,0,0,0,.46.21c.41,0,.62-.22.62-.67V12.81a.63.63,0,0,0-.2-.48.61.61,0,0,0-.42-.18.59.59,0,0,0-.44.21.71.71,0,0,0-.19.45Zm14,16.9v-2H78.44a3.51,3.51,0,0,1-1.12-.17,1.66,1.66,0,0,1-.86-.77,3.46,3.46,0,0,1-.37-1.8V14.34a2.72,2.72,0,0,1,.67-2.2,2.56,2.56,0,0,1,1.67-.54h1.25V10.37h2.69V11.6H83.7c1.52,0,2.27.92,2.27,2.74V25c0,1.83-.75,2.74-2.27,2.74H82.37v2Zm0-3.7V13.35c-.6,0-.91.35-.91,1.06V25c0,.69.31,1,.91,1Zm2.69-12.66V26c.6,0,.9-.35.9-1V14.41a1.22,1.22,0,0,0-.22-.76.8.8,0,0,0-.68-.3ZM92.71,29.71V12.47h-2V10.72h6.75v1.75h-2V29.71Zm9.67,0v-19h2.68v8.17l1.35-8.17h2.67l-1.67,9,1.94,10h-2.6l-1.69-9v9Zm12.29-2.56V13.48c0-2,.8-3.07,2.4-3.07h1.83c1.6,0,2.4,1,2.4,3.07V27.15a6.94,6.94,0,0,1-.13,1.42,1.85,1.85,0,0,1-.65,1,2.55,2.55,0,0,1-1.62.44h-1.83a3.65,3.65,0,0,1-1.23-.17,1.51,1.51,0,0,1-.83-.81,4.24,4.24,0,0,1-.34-1.9Zm2.7-14.34V27.6a.72.72,0,0,0,.16.46.57.57,0,0,0,.47.21c.41,0,.61-.22.61-.67V12.81a.63.63,0,0,0-.2-.48.61.61,0,0,0-.41-.18.58.58,0,0,0-.44.21.66.66,0,0,0-.19.45Zm10.41,16.9v-19h3.95l1.94,12.78,2.24-12.78h3.73v19H137V17.92l-1.74,11.79h-2.88l-1.87-11.79V29.71Z" transform="translate(-1.22 -0.65)"/><path class="cls-1" d="M50.37,7.45v-4h.53v4Zm1.7,0v-4h.53V5.11h2.06V3.48h.53v4h-.53V5.58H52.6V7.45ZM57.73,4V3.45h.49V4a1.81,1.81,0,0,1,1.19.46,1.33,1.33,0,0,1,.44,1,1.39,1.39,0,0,1-.42,1,1.83,1.83,0,0,1-1.21.47v.51h-.49V6.94a1.89,1.89,0,0,1-1.18-.43,1.33,1.33,0,0,1-.46-1.06,1.32,1.32,0,0,1,.46-1.06A1.85,1.85,0,0,1,57.73,4Zm.49.45V6.49a1.26,1.26,0,0,0,.8-.3,1,1,0,0,0,.29-.74A.94.94,0,0,0,59,4.71a1.23,1.23,0,0,0-.8-.3Zm-.49,0a1.29,1.29,0,0,0-.8.29,1,1,0,0,0-.3.75,1,1,0,0,0,.3.74,1.2,1.2,0,0,0,.8.29V4.41Zm2.85,1.11A2.15,2.15,0,0,1,61.11,4a1.81,1.81,0,0,1,1.37-.56,1.83,1.83,0,0,1,1,.27,1.71,1.71,0,0,1,.68.73,2.43,2.43,0,0,1,.23,1.06,2.26,2.26,0,0,1-.25,1.08,1.64,1.64,0,0,1-.68.72,1.92,1.92,0,0,1-1,.25,1.9,1.9,0,0,1-1-.27,1.77,1.77,0,0,1-.67-.74,2.24,2.24,0,0,1-.22-1Zm.54,0a1.64,1.64,0,0,0,.38,1.13,1.29,1.29,0,0,0,1,.41,1.25,1.25,0,0,0,1-.42,1.66,1.66,0,0,0,.39-1.18,2.08,2.08,0,0,0-.17-.85,1.29,1.29,0,0,0-.47-.56,1.41,1.41,0,0,0-1.67.19,1.69,1.69,0,0,0-.4,1.28Zm4.16,1.92v-4h1.5a4.23,4.23,0,0,1,.6,0,1.2,1.2,0,0,1,.49.19,1,1,0,0,1,.32.38,1.19,1.19,0,0,1,.12.54,1.22,1.22,0,0,1-.33.86,1.54,1.54,0,0,1-1.16.35h-1V7.45Zm.52-2.08h1a1.05,1.05,0,0,0,.72-.19.68.68,0,0,0,.22-.53.75.75,0,0,0-.13-.43A.56.56,0,0,0,67.31,4a1.83,1.83,0,0,0-.49,0h-1V5.37Zm3.33,2.08v-4h.79l.94,2.81c.09.26.15.46.19.59,0-.14.11-.36.21-.64l.95-2.76h.7v4h-.5V4.13L71.26,7.45h-.48L69.64,4.07V7.45Zm4.43,0,1.52-4h.57l1.62,4h-.6l-.46-1.2H74.55l-.43,1.2ZM74.7,5.82h1.35l-.42-1.1c-.12-.33-.22-.6-.28-.82a5,5,0,0,1-.21.76L74.7,5.82Zm3.23-2.34h.52V7h2.07V3.48h.53V7h.36V8.55h-.47V7.45h-3v-4Zm4.42,4v-4h.52v4Zm4.82,0v-4H85.41a2.42,2.42,0,0,0-.81.11.9.9,0,0,0-.44.38,1.12,1.12,0,0,0-.16.6,1,1,0,0,0,.27.71,1.46,1.46,0,0,0,.85.37,1.28,1.28,0,0,0-.32.19,3,3,0,0,0-.44.53l-.69,1.08h.66l.53-.83a6.37,6.37,0,0,1,.38-.54,1.35,1.35,0,0,1,.26-.27.82.82,0,0,1,.24-.1l.3,0h.6V7.45Zm-.53-2.22H85.52A1.76,1.76,0,0,1,85,5.16a.6.6,0,0,1-.3-.24.66.66,0,0,1-.11-.35.62.62,0,0,1,.2-.47,1,1,0,0,1,.65-.18h1.25V5.23ZM91.2,7.45v-4h.52v4Zm2-4h2.42V7H96V8.37h-.46V7.45H92.93v.92h-.47V7h.31a6,6,0,0,0,.47-2.92V3.48ZM95.13,4H93.75v.21q0,.5-.09,1.38A4.39,4.39,0,0,1,93.3,7h1.83V4Zm1.75,3.5v-4h2.87V4H97.4V5.17h2.2v.46H97.4V7h2.44v.47Zm4,0v-4h.52v4Zm-.51-4.21V2.69h.51v.55Zm1,0V2.69h.51v.55Zm5,4.21V4h-1.31V3.48h3.14V4H107v3.5Zm2.62,0v-4h2.86V4h-2.34V5.17h2.2v.46h-2.2V7H112v.47Zm3.51,0,1.54-2.07-1.36-1.9h.63l.72,1c.15.21.25.37.32.49a4,4,0,0,1,.31-.45l.8-1.06h.57L114.7,5.35l1.5,2.1h-.65l-1-1.42-.17-.26-.19.3-1,1.38Zm4.35,0v-4h.53V5.11h2.06V3.48H120v4h-.52V5.58h-2.06V7.45ZM121,5.52A2.15,2.15,0,0,1,121.5,4a1.81,1.81,0,0,1,1.37-.56,1.89,1.89,0,0,1,1,.27,1.75,1.75,0,0,1,.67.73,2.43,2.43,0,0,1,.23,1.06,2.38,2.38,0,0,1-.24,1.08,1.72,1.72,0,0,1-.69.72,1.92,1.92,0,0,1-1,.25,1.9,1.9,0,0,1-1-.27,1.75,1.75,0,0,1-.66-.74,2.12,2.12,0,0,1-.23-1Zm.54,0a1.64,1.64,0,0,0,.38,1.13,1.29,1.29,0,0,0,1,.41,1.27,1.27,0,0,0,1-.42,1.71,1.71,0,0,0,.38-1.18,2.26,2.26,0,0,0-.16-.85,1.31,1.31,0,0,0-.48-.56,1.41,1.41,0,0,0-1.67.19,1.69,1.69,0,0,0-.4,1.28Zm4.39-2.05h2.48v4h-.52V4h-1.44V6a6.55,6.55,0,0,1,0,.92.77.77,0,0,1-.25.45.72.72,0,0,1-.47.16,1.41,1.41,0,0,1-.42-.07l.09-.46a.74.74,0,0,0,.22,0,.3.3,0,0,0,.27-.13,1.36,1.36,0,0,0,.09-.63V3.48Zm3.42,2A2.19,2.19,0,0,1,129.85,4a1.81,1.81,0,0,1,1.37-.56,1.89,1.89,0,0,1,1,.27,1.75,1.75,0,0,1,.67.73,2.43,2.43,0,0,1,.23,1.06,2.38,2.38,0,0,1-.24,1.08,1.66,1.66,0,0,1-.69.72,1.92,1.92,0,0,1-1,.25,1.9,1.9,0,0,1-1-.27,1.84,1.84,0,0,1-.67-.74,2.24,2.24,0,0,1-.22-1Zm.54,0a1.64,1.64,0,0,0,.38,1.13,1.29,1.29,0,0,0,1,.41,1.27,1.27,0,0,0,1-.42,1.71,1.71,0,0,0,.38-1.18,2.08,2.08,0,0,0-.17-.85,1.23,1.23,0,0,0-.47-.56,1.41,1.41,0,0,0-1.67.19,1.69,1.69,0,0,0-.4,1.28ZM134,3.48h2.56V4h-2v3.5H134v-4Zm3.32,4v-4h.52v4Zm1.77,0v-4h.53v4Zm-.5-4.21V2.69h.5v.55Zm1,0V2.69h.51v.55Z" transform="translate(-1.22 -0.65)"/><path class="cls-1" d="M103.91,5.91a.62.62,0,1,0-.62-.62A.62.62,0,0,0,103.91,5.91Z" transform="translate(-1.22 -0.65)"/><path class="cls-1" d="M89.22,5.91a.62.62,0,1,0-.62-.62A.62.62,0,0,0,89.22,5.91Z" transform="translate(-1.22 -0.65)"/><path class="cls-2" d="M44.07,28.8V26.49h1a1.64,1.64,0,0,1,.53.07.46.46,0,0,1,.27.22.61.61,0,0,1,.1.36.63.63,0,0,1-.15.43.74.74,0,0,1-.46.21.88.88,0,0,1,.25.2,2.08,2.08,0,0,1,.27.37l.28.45h-.56l-.33-.5A2.69,2.69,0,0,0,45,28a.33.33,0,0,0-.14-.1l-.23,0h-.1v1Zm.46-1.33h.35a1.74,1.74,0,0,0,.42,0,.26.26,0,0,0,.13-.1.35.35,0,0,0,0-.36.39.39,0,0,0-.17-.09h-.71Z" transform="translate(-1.22 -0.65)"/><path class="cls-2" d="M44.92,29.68a2,2,0,1,1,2-2A2,2,0,0,1,44.92,29.68Zm0-3.77a1.8,1.8,0,1,0,1.79,1.8A1.8,1.8,0,0,0,44.92,25.91Z" transform="translate(-1.22 -0.65)"/></svg>