<svg xmlns="http://www.w3.org/2000/svg" xmlns:xlink="http://www.w3.org/1999/xlink" preserveAspectRatio="xMidYMid" width="204" height="36" viewBox="0 0 204 36">
  <defs>
    <style>
      .cls-1, .cls-2 {
        font-size: 15.8246px;
      }

      .cls-2 {
        fill: #e9ffdf;
        font-family: "ProximaNova-Light";
      }

      .cls-2, .cls-5 {
        text-transform: uppercase;
      }

      .cls-3 {
        fill: #f1f4f7;
      }

      .cls-4, .cls-5 {
        font-size: 56.2651px;
      }

      .cls-5 {
        fill: #fff;
        font-family: "GothamPro-Bold";
        font-weight: bold;
      }
    </style>
  </defs>
  <g>
    <text transform="translate(46 29) scale(0.57)" class="cls-1"><tspan class="cls-2">Живи как дома</tspan></text>
    <rect width="5" height="4" rx="1" ry="1" class="cls-3"/>
    <rect x="6" width="5" height="4" rx="1" ry="1" class="cls-3"/>
    <rect x="12" width="5" height="4" rx="1" ry="1" class="cls-3"/>
    <rect y="6" width="5" height="4" rx="1" ry="1" class="cls-3"/>
    <rect x="6" y="6" width="5" height="4" rx="1" ry="1" class="cls-3"/>
    <rect x="12" y="6" width="5" height="4" rx="1" ry="1" class="cls-3"/>
    <rect y="12" width="5" height="4" rx="1" ry="1" class="cls-3"/>
    <rect x="6" y="12" width="5" height="4" rx="1" ry="1" class="cls-3"/>
    <rect x="14" y="12" width="5" height="4" rx="1" ry="1" class="cls-3"/>
    <rect y="18" width="5" height="4" rx="1" ry="1" class="cls-3"/>
    <rect x="6" y="18" width="5" height="4" rx="1" ry="1" class="cls-3"/>
    <rect x="14" y="18" width="5" height="4" rx="1" ry="1" class="cls-3"/>
    <rect y="24" width="5" height="4" rx="1" ry="1" class="cls-3"/>
    <rect x="6" y="24" width="5" height="4" rx="1" ry="1" class="cls-3"/>
    <rect y="30" width="5" height="4" rx="1" ry="1" class="cls-3"/>
    <rect x="6" y="30" width="5" height="4" rx="1" ry="1" class="cls-3"/>
    <rect x="14" y="24" width="5" height="4" rx="1" ry="1" class="cls-3"/>
    <rect x="20" y="12" width="5" height="4" rx="1" ry="1" class="cls-3"/>
    <rect x="26" y="12" width="5" height="4" rx="1" ry="1" class="cls-3"/>
    <rect x="20" y="18" width="5" height="4" rx="1" ry="1" class="cls-3"/>
    <rect x="26" y="18" width="5" height="4" rx="1" ry="1" class="cls-3"/>
    <rect x="20" y="24" width="5" height="4" rx="1" ry="1" class="cls-3"/>
    <rect x="26" y="24" width="5" height="4" rx="1" ry="1" class="cls-3"/>
    <rect x="14" y="30" width="5" height="4" rx="1" ry="1" class="cls-3"/>
    <rect x="20" y="30" width="5" height="4" rx="1" ry="1" class="cls-3"/>
    <rect x="26" y="30" width="5" height="4" rx="1" ry="1" class="cls-3"/>
    <text transform="translate(46 4) scale(0.33)" class="cls-4"><tspan class="cls-5">мегаполис</tspan></text>
  </g>
</svg>
